<?xml version="1.0" standalone="no"?>
<!DOCTYPE svg PUBLIC "-//W3C//DTD SVG 20010904//EN"
 "http://www.w3.org/TR/2001/REC-SVG-20010904/DTD/svg10.dtd">
<svg version="1.0" xmlns="http://www.w3.org/2000/svg"
 width="148.000000pt" height="148.000000pt" viewBox="0 0 148.000000 148.000000"
 preserveAspectRatio="xMidYMid meet">
<metadata>
Created by potrace 1.14, written by Peter Selinger 2001-2017
</metadata>
<g transform="translate(0.000000,148.000000) scale(0.100000,-0.100000)"
fill="#000000" stroke="none">
<path d="M703 1338 c-6 -7 -33 -51 -60 -98 -27 -47 -101 -170 -163 -275 -181
-304 -281 -476 -288 -494 -3 -9 -13 -27 -23 -41 -9 -14 -20 -38 -24 -55 -6
-29 -6 -29 10 -10 9 11 14 14 10 7 -4 -8 4 -14 23 -18 16 -3 35 -16 41 -28 7
-12 22 -22 38 -23 14 0 37 -11 52 -22 14 -12 38 -26 53 -32 14 -6 29 -17 32
-25 3 -8 12 -14 21 -14 8 0 15 -4 15 -10 0 -5 9 -10 19 -10 11 0 21 -6 23 -12
4 -10 110 -14 478 -16 l473 -3 -15 23 c-13 21 -355 593 -586 983 -110 185
-114 191 -129 173z"/>
</g>
</svg>
